<svg width="241" height="243" viewBox="0 0 241 243" fill="none" xmlns="http://www.w3.org/2000/svg">
<path d="M150.766 24.8152C150.2 25.3983 149.469 25.7741 148.57 25.9997C147.672 26.1969 146.669 26.1599 145.56 25.889C144.45 25.6181 143.491 25.1514 142.738 24.5485C141.986 23.9455 141.409 23.234 141.067 22.3875C140.725 21.5409 140.644 20.6463 140.795 19.6739L144.122 20.5154C144.041 21.1739 144.162 21.7823 144.486 22.312C144.811 22.8416 145.343 23.2063 146.083 23.3774C146.737 23.5452 147.284 23.5079 147.725 23.2364C148.165 22.9651 148.438 22.5725 148.574 22.031C148.705 21.5469 148.664 21.114 148.45 20.7035C148.262 20.3228 147.96 19.9665 147.569 19.6646C147.179 19.3625 146.647 18.9978 145.946 18.5406C145.049 17.9612 144.321 17.4454 143.794 16.9658C143.266 16.4864 142.857 15.896 142.569 15.1665C142.28 14.4367 142.281 13.6028 142.52 12.605C142.856 11.2656 143.609 10.3155 144.777 9.78328C145.945 9.25107 147.325 9.18684 148.946 9.59163C150.595 10.0262 151.831 10.7619 152.597 11.7967C153.39 12.8613 153.662 14.0504 153.467 15.4238L150.084 14.5515C150.135 13.9494 150.01 13.4272 149.711 12.9847C149.413 12.5136 148.936 12.2084 148.281 12.0405C147.713 11.9046 147.195 11.9143 146.757 12.1282C146.318 12.3422 146.046 12.7348 145.881 13.3039C145.806 13.79 145.847 14.223 146.034 14.6038C146.221 14.9845 146.524 15.312 146.887 15.613C147.249 15.9139 147.78 16.2786 148.454 16.706C149.378 17.3153 150.105 17.8597 150.662 18.3403C151.217 18.8209 151.627 19.4112 151.914 20.1695C152.203 20.8992 152.199 21.7906 151.961 22.7885C151.731 23.5566 151.362 24.2332 150.766 24.8152Z" fill="#242F65"/>
<path d="M174.558 21.1177C175.304 22.6408 175.503 24.2873 175.092 26.0841L172.017 24.6192C172.08 23.6725 171.882 22.8311 171.423 22.0378C170.963 21.2731 170.268 20.6435 169.338 20.2066C168.577 19.8335 167.778 19.6891 166.971 19.7743C166.164 19.8596 165.406 20.1769 164.725 20.7271C164.045 21.2772 163.472 22.0327 163.004 23.0221C162.538 23.9827 162.332 24.8954 162.328 25.7868C162.324 26.6782 162.554 27.4633 162.987 28.1407C163.422 28.8182 164.033 29.3583 164.795 29.7315C165.726 30.1684 166.638 30.3459 167.533 30.2062C168.428 30.0666 169.216 29.693 169.9 29.0567L172.975 30.5215C171.832 31.9462 170.421 32.8434 168.771 33.2141C167.121 33.5848 165.379 33.3194 163.575 32.4476C162.193 31.7927 161.108 30.8613 160.345 29.7403C159.584 28.5906 159.172 27.31 159.137 25.8996C159.104 24.489 159.415 23.0625 160.099 21.6209C160.784 20.1793 161.716 19.0345 162.84 18.1556C163.962 17.3053 165.214 16.805 166.568 16.711C167.921 16.5882 169.317 16.8697 170.728 17.5543C172.533 18.3973 173.81 19.5947 174.558 21.1177Z" fill="#242F65"/>
<path d="M182.772 44.313L183.559 36.9794L182.413 36.1319L178.611 41.1687L176.043 39.2048L185.821 26.2776L190.736 29.996C192.243 31.1443 193.089 32.3546 193.326 33.6864C193.565 35.0181 193.231 36.2713 192.325 37.4747C191.6 38.4545 190.688 39.0537 189.646 39.3029C188.603 39.5521 187.489 39.3961 186.304 38.8348L185.622 46.4311L182.772 44.313ZM183.77 34.37L185.893 35.9725C187.373 37.091 188.612 36.9928 189.578 35.6767C190.06 35.0617 190.227 34.4352 190.136 33.799C190.045 33.1629 189.607 32.5716 188.853 31.9975L186.731 30.3951L183.77 34.37Z" fill="#242F65"/>
<path d="M209.516 49.2665C209.809 50.6578 209.701 52.0344 209.22 53.3972C208.738 54.7599 207.919 55.9665 206.703 57.0146C205.516 58.0637 204.199 58.7343 202.781 59.056C201.364 59.3489 199.96 59.2685 198.628 58.8168C197.295 58.365 196.119 57.5454 195.128 56.416C194.137 55.2865 193.494 54.0263 193.201 52.635C192.908 51.2436 193.016 49.8672 193.498 48.4757C193.979 47.1128 194.828 45.8786 196.015 44.8295C197.202 43.7803 198.519 43.1097 199.936 42.8168C201.354 42.5239 202.728 42.6032 204.06 43.055C205.394 43.5066 206.569 44.3264 207.56 45.4558C208.58 46.615 209.222 47.8753 209.516 49.2665ZM203.207 45.9858C202.413 45.7264 201.58 45.6959 200.711 45.9227C199.841 46.1495 198.992 46.6072 198.191 47.3254C197.39 48.0437 196.816 48.7991 196.468 49.6492C196.123 50.4704 196.035 51.3012 196.205 52.1415C196.347 52.9521 196.749 53.7433 197.383 54.4569C198.016 55.1705 198.716 55.6564 199.51 55.9157C200.304 56.1751 201.136 56.177 202.005 55.9501C202.876 55.7232 203.725 55.2657 204.527 54.5473C205.328 53.8291 205.902 53.0737 206.248 52.2237C206.596 51.3736 206.683 50.5715 206.513 49.7312C206.371 48.9208 205.969 48.1294 205.336 47.4158C204.729 46.7321 204.03 46.2461 203.207 45.9858Z" fill="#242F65"/>
<path d="M207.99 69.6014L210.774 74.2767L208.631 75.5496L204.228 68.0825L218.169 59.795L219.817 62.5879L207.99 69.6014Z" fill="#242F65"/>
<path d="M214.835 83.2266L216.888 88.2777L214.586 89.1995L211.324 81.1417L226.333 75.0219L227.543 78.0286L214.835 83.2266Z" fill="#242F65"/>
<path d="M224.004 117.127C222.703 116.591 221.674 115.719 220.856 114.538C220.039 113.329 219.547 111.873 219.354 110.111L218.734 104.365L234.818 102.57L235.439 108.288C235.633 110.049 235.461 111.596 234.952 112.929C234.444 114.262 233.6 115.352 232.48 116.145C231.36 116.938 229.964 117.433 228.349 117.604C226.732 117.861 225.304 117.664 224.004 117.127ZM223.997 113.417C225.029 114.26 226.337 114.596 227.979 114.426C229.65 114.258 230.88 113.613 231.664 112.578C232.478 111.515 232.788 110.146 232.595 108.384L232.332 106.16L221.927 107.301L222.16 109.524C222.384 111.258 222.968 112.545 223.997 113.417Z" fill="#242F65"/>
<path d="M234.327 138.415C233.482 139.564 232.415 140.445 231.074 140.999C229.732 141.582 228.29 141.789 226.717 141.616C225.144 141.443 223.757 140.932 222.582 140.083C221.408 139.234 220.529 138.166 219.945 136.88C219.39 135.594 219.183 134.177 219.325 132.658C219.496 131.139 219.976 129.806 220.823 128.657C221.64 127.509 222.735 126.629 224.075 126.074C225.418 125.491 226.861 125.285 228.462 125.459C230.034 125.632 231.422 126.143 232.597 126.963C233.771 127.812 234.651 128.879 235.235 130.166C235.791 131.452 235.996 132.869 235.854 134.388C235.653 135.933 235.173 137.268 234.327 138.415ZM232.486 131.56C232.14 130.8 231.589 130.176 230.832 129.687C230.074 129.2 229.167 128.907 228.11 128.782C227.052 128.657 226.101 128.766 225.257 129.08C224.413 129.393 223.734 129.886 223.25 130.559C222.737 131.231 222.449 132.025 222.358 132.971C222.265 133.917 222.378 134.755 222.721 135.544C223.066 136.304 223.617 136.929 224.375 137.417C225.132 137.904 226.039 138.197 227.097 138.322C228.155 138.447 229.106 138.338 229.95 138.024C230.794 137.71 231.473 137.218 231.956 136.546C232.469 135.874 232.757 135.08 232.849 134.134C232.943 133.159 232.83 132.321 232.486 131.56Z" fill="#242F65"/>
<path d="M225.314 172.625L211.477 163.315L212.849 159.569L224.92 160.762L214.955 153.837L216.327 150.121L232.908 151.967L231.696 155.259L219.052 153.269L229.718 160.622L228.505 163.942L215.606 162.662L226.526 169.333L225.314 172.625Z" fill="#242F65"/>
<path d="M199.154 183.741L200.975 181.047L214.146 181.215L205.044 175.042L206.866 172.349L220.28 181.442L218.459 184.135L205.205 183.906L214.39 190.14L212.568 192.834L199.154 183.741Z" fill="#242F65"/>
<path d="M189.603 215.399L187.982 213.413L191.418 210.548L182.735 200.019L185.223 197.954L193.905 208.482L197.34 205.647L198.989 207.635L189.603 215.399Z" fill="#242F65"/>
<path d="M171.461 225.459C170.056 225.437 168.723 225.013 167.488 224.249C166.253 223.484 165.26 222.383 164.508 220.976C163.757 219.568 163.378 218.144 163.404 216.678C163.429 215.213 163.822 213.904 164.556 212.694C165.318 211.486 166.359 210.517 167.677 209.79C168.996 209.062 170.386 208.738 171.791 208.762C173.197 208.784 174.53 209.208 175.765 209.972C177 210.765 177.993 211.837 178.745 213.245C179.496 214.653 179.875 216.077 179.822 217.512C179.798 218.95 179.404 220.287 178.67 221.496C177.908 222.705 176.867 223.674 175.549 224.402C174.257 225.159 172.867 225.511 171.461 225.459ZM176.054 220.049C176.482 219.316 176.684 218.519 176.66 217.626C176.635 216.734 176.354 215.803 175.872 214.865C175.361 213.925 174.729 213.183 174.001 212.668C173.273 212.152 172.48 211.864 171.649 211.833C170.818 211.804 169.977 212.003 169.157 212.461C168.308 212.919 167.684 213.5 167.255 214.231C166.825 214.964 166.624 215.762 166.649 216.654C166.673 217.547 166.955 218.477 167.465 219.416C167.976 220.355 168.609 221.098 169.336 221.614C170.063 222.129 170.857 222.388 171.688 222.447C172.519 222.478 173.359 222.279 174.18 221.82C175 221.361 175.625 220.78 176.054 220.049Z" fill="#242F65"/>
<path d="M135.493 223.129C135.751 222.362 136.235 221.69 136.973 221.112C137.685 220.535 138.618 220.138 139.746 219.891C140.873 219.674 141.907 219.654 142.876 219.863C143.845 220.072 144.662 220.475 145.329 221.074C145.996 221.674 146.483 222.47 146.764 223.4L143.381 224.08C143.174 223.44 142.819 222.967 142.286 222.631C141.753 222.295 141.125 222.185 140.401 222.36C139.736 222.479 139.266 222.779 138.993 223.2C138.719 223.622 138.614 224.107 138.738 224.658C138.834 225.15 139.05 225.531 139.413 225.804C139.748 226.075 140.171 226.263 140.655 226.367C141.139 226.471 141.767 226.58 142.596 226.669C143.654 226.794 144.537 226.97 145.219 227.168C145.928 227.366 146.547 227.735 147.103 228.243C147.657 228.782 148.059 229.545 148.252 230.529C148.518 231.891 148.245 233.06 147.433 234.066C146.622 235.043 145.391 235.716 143.771 236.03C142.094 236.372 140.664 236.232 139.511 235.614C138.355 234.996 137.559 234.047 137.178 232.71L140.59 232.031C140.799 232.584 141.127 232.999 141.605 233.305C142.082 233.581 142.654 233.659 143.318 233.54C143.897 233.418 144.336 233.175 144.638 232.783C144.94 232.392 145.016 231.906 144.893 231.327C144.795 230.862 144.579 230.509 144.244 230.238C143.909 229.995 143.514 229.808 143.029 229.705C142.573 229.602 141.947 229.492 141.145 229.405C140.06 229.25 139.148 229.073 138.466 228.904C137.756 228.705 137.136 228.366 136.553 227.826C135.97 227.288 135.569 226.496 135.377 225.483C135.177 224.67 135.206 223.894 135.493 223.129Z" fill="#242F65"/>
<path d="M124.989 235.512L124.886 231.309L119.138 231.471L119.086 228.996L124.805 228.833L124.679 224.456L118.243 224.622L118.166 222.031L127.821 221.754L128.257 237.961L118.601 238.238L118.523 235.676L124.989 235.512Z" fill="#242F65"/>
<path d="M106.502 234.715L107.087 230.538L101.403 229.754L101.753 227.294L107.436 228.077L108.026 223.757L101.657 222.89L102.01 220.314L111.579 221.616L109.378 237.698L99.809 236.396L100.161 233.85L106.502 234.715Z" fill="#242F65"/>
<path d="M69.468 225.472C68.6493 224.321 68.1513 223.037 68.0323 221.595C67.9132 220.152 68.168 218.694 68.8242 217.251C69.4802 215.809 70.3848 214.635 71.5654 213.758C72.746 212.881 74.0275 212.382 75.4386 212.261C76.8497 212.14 78.248 212.364 79.6315 212.991C81.015 213.617 82.1309 214.492 82.9496 215.644C83.7969 216.796 84.2663 218.079 84.3842 219.55C84.5032 220.993 84.2484 222.451 83.5923 223.893C82.9362 225.336 82.0317 226.51 80.8521 227.358C79.6725 228.207 78.391 228.706 76.9789 228.855C75.5679 228.976 74.1695 228.752 72.7861 228.125C71.4025 227.499 70.2865 226.624 69.468 225.472ZM76.5445 225.848C77.3801 225.764 78.1392 225.417 78.8485 224.869C79.5588 224.29 80.1034 223.534 80.5705 222.545C81.009 221.554 81.2149 220.642 81.1629 219.719C81.1384 218.827 80.8814 218.012 80.3898 217.332C79.9269 216.654 79.2292 216.111 78.383 215.706C77.507 215.329 76.681 215.155 75.8444 215.267C75.0087 215.351 74.2496 215.697 73.5393 216.275C72.829 216.853 72.2844 217.609 71.8173 218.599C71.3788 219.589 71.1729 220.502 71.2249 221.424C71.2781 222.318 71.5075 223.102 71.998 223.811C72.4896 224.491 73.1586 225.033 74.0048 225.438C74.8511 225.843 75.7375 225.933 76.5445 225.848Z" fill="#242F65"/>
<path d="M54.4894 217.53L60.1397 209.887C60.8956 208.851 61.2449 207.943 61.1621 207.078C61.0792 206.211 60.6173 205.503 59.7795 204.869C58.9408 204.263 58.1168 204.031 57.2781 204.202C56.4392 204.373 55.6706 204.977 54.9146 206.013L49.293 213.658L46.7224 211.751L52.3452 204.077C53.2221 202.873 54.201 202.018 55.2818 201.511C56.334 201.004 57.4308 200.843 58.5148 201.026C59.5989 201.21 60.6437 201.679 61.6503 202.407C63.2154 203.558 64.1115 204.943 64.3663 206.592C64.6223 208.211 64.0704 209.945 62.74 211.766L57.1174 219.439L54.4894 217.53Z" fill="#242F65"/>
<path d="M45.3995 187.716L43.3305 194.772L44.2968 195.814L48.9332 191.528L51.113 193.908L39.1965 204.888L35.03 200.334C33.7611 198.935 33.1218 197.589 33.1431 196.239C33.1642 194.887 33.6961 193.699 34.796 192.675C35.6878 191.846 36.6806 191.393 37.7444 191.345C38.8084 191.299 39.8871 191.626 40.9499 192.384L42.9733 185.01L45.3995 187.716ZM42.633 197.335L40.8397 195.371C39.5983 194.003 38.3689 193.871 37.15 195.006C36.5852 195.531 36.2762 196.124 36.254 196.727C36.2306 197.359 36.5503 198.032 37.1852 198.717L38.9786 200.681L42.633 197.335Z" fill="#242F65"/>
<path d="M30.429 170.226L27.9083 165.416L30.1039 164.26L34.1262 171.943L19.7812 179.496L18.2798 176.623L30.429 170.226Z" fill="#242F65"/>
<path d="M21.4967 150.138L23.4495 156.337L26.8907 156.434L27.9186 159.694L10.8414 158.834L9.737 155.314L23.2154 144.795L24.2434 148.053L21.4967 150.138ZM19.3998 151.729L13.6125 156.089L20.8387 156.298L19.3998 151.729Z" fill="#242F65"/>
<path d="M4.8476 129.911L7.38517 129.602L7.90987 134.051L21.4323 132.449L21.8019 135.654L8.27951 137.257L8.80528 141.676L6.23904 141.984L4.8476 129.911Z" fill="#242F65"/>
<path d="M7.40905 118.07L11.5924 118.281L11.8618 112.539L14.3261 112.659L14.0567 118.401L18.4119 118.618L18.7356 112.188L21.3145 112.312L20.8425 121.987L4.68262 121.162L5.15466 111.487L7.70499 111.61L7.40905 118.07Z" fill="#242F65"/>
<path d="M22.4148 94.9529C22.9967 95.5207 23.4299 96.2269 23.6561 97.0981C23.8823 97.9692 23.8728 99.0042 23.6307 100.117C23.3887 101.23 22.98 102.193 22.3759 103.004C21.8004 103.817 21.0901 104.395 20.2726 104.768C19.4264 105.139 18.5325 105.25 17.561 105.128L18.3167 101.762C18.974 101.844 19.5537 101.693 20.0835 101.338C20.6132 100.984 20.9487 100.45 21.1197 99.7081C21.2587 99.0518 21.1928 98.503 20.9211 98.0902C20.6503 97.6489 20.2298 97.3746 19.6883 97.2684C19.2042 97.1643 18.772 97.2059 18.3622 97.4208C17.981 97.6369 17.6253 97.9402 17.3525 98.3329C17.051 98.7244 16.7156 99.2584 16.2866 99.9904C15.7366 100.891 15.2494 101.649 14.7694 102.207C14.3183 102.765 13.7279 103.204 13.0283 103.494C12.3275 103.814 11.4654 103.839 10.497 103.631C9.13056 103.322 8.18131 102.597 7.62066 101.455C7.06 100.312 6.93889 98.9273 7.31469 97.3018C7.69259 95.6188 8.39861 94.3794 9.40511 93.5537C10.4403 92.729 11.6294 92.3989 13.0012 92.5644L12.2433 95.9877C11.6413 95.9656 11.1486 96.0912 10.6783 96.3903C10.2366 96.6904 9.93083 97.1968 9.79178 97.8531C9.6559 98.4234 9.72281 98.9436 9.93624 99.3827C10.1497 99.822 10.5701 100.096 11.1403 100.204C11.5958 100.307 12.0279 100.265 12.3804 100.048C12.7329 99.8308 13.0875 99.5563 13.3603 99.1637C13.6333 98.7711 13.9974 98.238 14.3956 97.5625C14.9752 96.6347 15.4912 95.8773 15.9424 95.3186C16.3936 94.76 16.9839 94.3216 17.7133 94.0033C18.4427 93.685 19.3048 93.6592 20.3306 93.8696C21.1279 94.0427 21.8032 94.4127 22.4148 94.9529Z" fill="#242F65"/>
<path d="M15.9371 72.1377L18.3122 73.1167L16.6094 77.253L29.1903 82.4903L27.9599 85.4936L15.379 80.2563L13.6772 84.3639L11.302 83.3849L15.9371 72.1377Z" fill="#242F65"/>
<path d="M40.0702 38.1686L49.7296 51.7826L47.121 54.7926L36.2686 49.3889L43.1619 59.3923L40.5533 62.4024L25.7054 54.8097L27.985 52.1613L39.0901 58.4946L31.7041 47.8405L34.0142 45.1357L45.628 50.9126L37.7621 40.8159L40.0702 38.1686Z" fill="#242F65"/>
<path d="M57.9602 25.5687C59.3713 25.4482 60.7399 25.6998 62.0374 26.3228C63.3348 26.9458 64.4476 27.9071 65.3756 29.2066C66.2749 30.5052 66.8271 31.8772 66.9451 33.3484C67.0927 34.7918 66.8698 36.1641 66.2487 37.4354C65.6563 38.7078 64.7262 39.7952 63.4883 40.6699C62.2503 41.5447 60.9115 42.0419 59.5004 42.1625C58.0893 42.2831 56.7208 42.0314 55.4233 41.4085C54.1258 40.7855 53.0141 39.7955 52.0861 38.4958C51.1867 37.1974 50.6345 35.8253 50.5155 34.3829C50.368 32.9394 50.6195 31.5682 51.2118 30.2958C51.833 29.0245 52.7343 27.936 53.9723 27.0613C55.2092 26.2152 56.548 25.7181 57.9602 25.5687ZM54.0097 31.4918C53.6656 32.2556 53.5489 33.0854 53.6881 33.982C53.8272 34.8787 54.1967 35.7552 54.7956 36.6399C55.3944 37.5248 56.1175 38.1554 56.9054 38.587C57.6932 39.0187 58.5192 39.1928 59.3538 39.1372C60.1883 39.0818 61.0038 38.7666 61.7702 38.2197C62.5368 37.6726 63.106 37.0322 63.4499 36.2683C63.7938 35.5045 63.9106 34.6747 63.7715 33.778C63.6324 32.8812 63.2629 32.0049 62.664 31.12C62.0651 30.2351 61.342 29.6047 60.5542 29.1729C59.7664 28.7413 58.9403 28.5671 58.1057 28.6227C57.2713 28.6783 56.4558 28.9934 55.6892 29.5403C54.9228 30.0873 54.3536 30.7279 54.0097 31.4918Z" fill="#242F65"/>
<path d="M83.6494 29.5346L77.6652 25.2304L76.3529 25.7861L78.8663 31.5731L75.8902 32.8728L69.4628 18.0261L75.1229 15.5597C76.844 14.8178 78.3421 14.6716 79.6173 15.1212C80.8925 15.5707 81.8343 16.497 82.4152 17.8701C82.8898 19.0092 82.9939 20.0771 82.6977 21.1016C82.4015 22.1262 81.7082 23.0209 80.6465 23.7871L86.9164 28.1306L83.6494 29.5346ZM75.4801 23.7696L77.9305 22.7092C79.6229 21.9663 80.1517 20.8641 79.49 19.3442C79.1726 18.6136 78.7298 18.1659 78.1352 17.9426C77.5407 17.7194 76.8197 17.808 75.9448 18.1784L73.4944 19.2386L75.4801 23.7696Z" fill="#242F65"/>
<path d="M97.2393 16.7765L105.724 23.3298L101.903 24.1957L94.4288 18.2549L96.0557 25.5048L92.9003 26.2227L89.3512 10.389L92.5068 9.67114L94.1103 16.7764L98.3835 8.33442L102.176 7.46741L97.2393 16.7765Z" fill="#242F65"/>
<path d="M124.407 4.80573L126.885 10.764L133.209 12.0897L128.316 16.3098L128.999 22.7197L123.495 19.3823L117.6 22.0125L119.094 15.7404L114.764 10.9506L121.186 10.4104L124.407 4.80573Z" fill="#F3764F"/>
<g clip-path="url(#clip0_1_28)">
<path d="M120.999 145.433V97.0005M109.999 135.718L120.999 147L131.999 135.718H109.999Z" stroke="#242F65" stroke-width="1.5" stroke-linecap="round" stroke-linejoin="round"/>
</g>
<defs>
<clipPath id="clip0_1_28">
<rect width="24" height="52" fill="white" transform="translate(109 96)"/>
</clipPath>
</defs>
</svg>
