<svg width="176" height="41" viewBox="0 0 176 41" fill="none" xmlns="http://www.w3.org/2000/svg">
<g clip-path="url(#clip0_1_6)">
<path d="M62.5287 34.407C58.7054 34.407 55.8564 33.4573 53.9817 31.558C52.1071 29.6587 51.1697 26.8343 51.1697 23.085V7.915H56.9417V23.122C56.9417 25.2187 57.3857 26.8097 58.2737 27.895C59.1864 28.9803 60.6047 29.523 62.5287 29.523C64.4034 29.523 65.7971 28.9803 66.7097 27.895C67.6471 26.8097 68.1157 25.2187 68.1157 23.122V7.915H73.8137V23.085C73.8137 26.8343 72.8641 29.6587 70.9647 31.558C69.0901 33.4573 66.2781 34.407 62.5287 34.407ZM78.9232 34V7.915H84.6952V34H78.9232ZM101.191 34.407C97.3675 34.407 94.5185 33.4573 92.6439 31.558C90.7692 29.6587 89.8319 26.8343 89.8319 23.085V7.915H95.6039V23.122C95.6039 25.2187 96.0479 26.8097 96.9359 27.895C97.8485 28.9803 99.2669 29.523 101.191 29.523C103.066 29.523 104.459 28.9803 105.372 27.895C106.309 26.8097 106.778 25.2187 106.778 23.122V7.915H112.476V23.085C112.476 26.8343 111.526 29.6587 109.627 31.558C107.752 33.4573 104.94 34.407 101.191 34.407ZM114.002 34L124.917 19.496V22.049L114.298 7.915H121.069L128.173 17.868H126.323L133.464 7.915H140.235L129.579 22.049V19.496L140.568 34H133.76L126.323 23.677H128.21L120.736 34H114.002ZM151.293 34.407C148.037 34.407 145.496 33.5313 143.671 31.78C141.846 30.0287 140.933 27.6483 140.933 24.639C140.933 22.6903 141.315 20.9883 142.08 19.533C142.869 18.0777 143.955 16.943 145.336 16.129C146.742 15.2903 148.382 14.871 150.257 14.871C152.107 14.871 153.649 15.2657 154.882 16.055C156.14 16.8443 157.077 17.9543 157.694 19.385C158.335 20.791 158.656 22.4313 158.656 24.306V25.601H145.521V22.826H154.586L153.957 23.344C153.957 21.79 153.636 20.6183 152.995 19.829C152.378 19.015 151.478 18.608 150.294 18.608C148.987 18.608 147.975 19.089 147.26 20.051C146.569 21.013 146.224 22.3943 146.224 24.195V24.787C146.224 26.6123 146.668 27.969 147.556 28.857C148.469 29.745 149.776 30.189 151.478 30.189C152.489 30.189 153.439 30.0657 154.327 29.819C155.24 29.5477 156.103 29.1283 156.917 28.561L158.471 32.261C157.534 32.9517 156.448 33.482 155.215 33.852C154.006 34.222 152.699 34.407 151.293 34.407ZM162.164 34V20.199C162.164 19.385 162.139 18.5587 162.09 17.72C162.065 16.8813 162.003 16.055 161.905 15.241H167.27L167.899 20.717H167.048C167.294 19.385 167.689 18.2873 168.232 17.424C168.799 16.5607 169.49 15.9193 170.304 15.5C171.142 15.0807 172.092 14.871 173.153 14.871C173.621 14.871 173.991 14.8957 174.263 14.945C174.534 14.9697 174.805 15.0313 175.077 15.13L175.04 20.051C174.522 19.829 174.078 19.6933 173.708 19.644C173.362 19.57 172.918 19.533 172.376 19.533C171.34 19.533 170.476 19.7303 169.786 20.125C169.12 20.5197 168.614 21.0993 168.269 21.864C167.948 22.6287 167.788 23.5537 167.788 24.639V34H162.164Z" fill="#242F65"/>
<path d="M36.7884 10.1693C40.1956 13.5765 40.1956 19.1006 36.7884 22.5078L25.8209 33.4753C22.4138 36.8824 16.8897 36.8824 13.4825 33.4753C10.0753 30.0681 10.0753 24.544 13.4825 21.1368L24.45 10.1693C27.8572 6.76218 33.3813 6.76218 36.7884 10.1693Z" fill="#7390F9"/>
<path d="M25.8613 33.4751C22.4541 36.8822 16.93 36.8822 13.5229 33.4751L2.55537 22.5076C-0.85179 19.1004 -0.851791 13.5763 2.55537 10.1691C5.96253 6.76198 11.4866 6.76198 14.8938 10.1691L25.8613 21.1366C29.2685 24.5438 29.2685 30.0679 25.8613 33.4751Z" fill="#FF774C"/>
<path d="M26.3425 32.9603L25.8209 33.4819C24.1336 35.1692 21.9271 36.0209 19.7156 36.037C17.475 36.043 15.2324 35.1913 13.5229 33.4817L12.999 32.9578C10.0838 29.5299 10.245 24.381 13.4825 21.1435L19.672 14.954L25.8613 21.1433C29.0997 24.3816 29.2601 29.5324 26.3425 32.9603Z" fill="#242F65"/>
</g>
<defs>
<clipPath id="clip0_1_6">
<rect width="176" height="41" fill="white"/>
</clipPath>
</defs>
</svg>
